<svg xmlns="http://www.w3.org/2000/svg" width="490.449" height="211.885" viewBox="0 0 490.449 211.885"><defs><style>.a{fill:#a03400;}.b{fill:#ffca00;}</style></defs><g transform="translate(-1149.914 -470.073)"><path class="a" d="M1640.363,540.572l-13.3,1.6c-5.911.71-13.861,1.434-20.981,1.877,6.162-18.285,12.347-35.5,23.035-61.444l4.437-10.771-11.646-.274c-2.139-.051-4.09-.075-5.965-.075a147.6,147.6,0,0,0-24.775,1.93l.4-.995-11.448-.335c-5.069-.148-10.332-.223-15.641-.223-13.1,0-31.609.461-46.582,2.588l.527-1.782-10.082-.573c-8.262-.47-17.111-.708-26.3-.708v4h0v-4h0c-14.736,0-30.1.612-44.437,1.77l-1.944.157-6.571-.667a164.637,164.637,0,0,0-16.961-.987c-3.484,0-6.878.148-10.376.452a90.146,90.146,0,0,0-26.883,6.356c-10.482,4.433-18.01,10.648-22.375,18.475-2.715,4.579-5.311,11.96-4.574,19.149,1.195,14.908,10.991,22.326,20.431,27.615a25.163,25.163,0,0,1,3.029,1.99,23.082,23.082,0,0,1-4.1.634c-1.011.063-2.165.1-3.43.1a90.1,90.1,0,0,1-15.8-1.4l-3.958-.809c.132-15.5-.037-31.226-.211-46.646q-.1-9.081-.185-18.085l-.063-7.669-7.664-.261c-4.208-.143-7.666-.21-10.882-.21a160.941,160.941,0,0,0-25.655,1.877l-4,.631-1.86,3.6c-6.931,13.395-13.629,27.2-20.164,41.1a53.878,53.878,0,0,0,1.563-13.2c-.184-17.682-9.449-26.083-17.189-30.024-8.142-4.146-17.433-4.961-25.447-5.212-.793-.027-1.635-.042-2.479-.042h0a108.689,108.689,0,0,0-30.9,5.011l-3.845,1.234-1.292,3.826c-8.959,26.549-16,52.342-22.8,77.286q-2.166,7.941-4.345,15.867l-3.011,10.914,7.325-.523c-.089.032-.184.064-.271.1l-3.617,1.33-1.215,3.658c-5.1,15.369-8.457,27.809-12.341,42.215q-.786,2.918-1.6,5.943l-2.013,7.433,7.351,2.3A49.905,49.905,0,0,0,1172,648.835c10.09,0,19.023-2.43,26.07-7.056l-1.665,6.776h10.2c1.254,0,2.716.008,4.325.017,2,.01,4.225.022,6.558.022,4.7,0,11.642-.042,17.583-.4l4.5-.273,2.1-3.995a124.741,124.741,0,0,0,6.028-13.388l4.816-12.441-2.36.287c.461-1.488.895-2.984,1.357-4.668l.472-1.721,1.008.046,2.054-5.422c1.974-5.211,3.787-9.883,5.39-13.888l4.254-10.634-2.533-.074q1.443-.066,2.915-.1l-.876,2.672c-9.755,29.739-16.312,56.007-23.156,86.3l-2.475,10.954,11.161-1.24a95.006,95.006,0,0,1,10.392-.537c3.748,0,7.629.185,11.534.551l6.61.62,1.338-4.674,4.231,1.322a81.5,81.5,0,0,0,23.657,3.489c18.438,0,34.382-4.972,46.108-14.379a60.883,60.883,0,0,0,8.835-8.737l0,.014q-1.536,6.324-3.1,12.711l-2.436,9.909h10.2c2.168,0,4.7.014,7.477.029,3.436.018,7.254.038,11.26.038,8.026,0,19.861-.071,29.939-.682l4.5-.273,2.1-4c1.022-1.947,1.994-3.882,2.938-5.834-.054.24-.108.475-.162.715l-2.475,10.954,11.161-1.24a95.006,95.006,0,0,1,10.392-.537c2.774,0,5.62.1,8.495.3l-.287.632,3.8-.34,6.132.575.33-1.153,3.411-.3c3.113-.279,6.407-.42,9.788-.42,3.408,0,6.94.144,10.5.426l4.965.4,2.545-4.281c1.956-3.291,3.623-6.555,5.234-9.712l.008-.017c2.892-.151,5.609-.238,8.248-.309-.083,2.2-.191,4.365-.343,6.447l-.706,9.65,9.611-1.12a95.5,95.5,0,0,1,10.964-.533c3.372,0,6.8.1,10.316.222l7.887.262.024-.5a116.3,116.3,0,0,0,18.669,1.533c22.917,0,40.738-7.029,50.18-19.793l.117-.158.109-.163a28.005,28.005,0,0,0,4.266-11c1.7-11.536-7.216-17.846-12.545-21.616-.418-.295-.832-.588-1.237-.88a40.64,40.64,0,0,0-5.532-3.176,44.643,44.643,0,0,1-5.617-3.212,8.241,8.241,0,0,1,3.606-3.168c.967-.46,3.967-1.22,9.246-1.219a39.183,39.183,0,0,1,8.187.744l7.666,1.834,1.947-7.639,6.25-24.516,2.294-9-8.564-.868a212.638,212.638,0,0,0,11.264-24.951Zm-416.246-21.031q.227-.844.449-1.682c.777-2.915,1.526-5.721,2.308-8.473a18.048,18.048,0,0,1,3.174-.278c.39,0,.784.012,1.174.036h0c.289,1.663-.984,6.1-3.561,8.641A10.2,10.2,0,0,1,1224.117,519.541Zm152.547,83.979c-1.965-8.016-5.811-14.368-11.487-18.975a101.983,101.983,0,0,0,17.916-1.684l-.764,2.341C1380.291,591.441,1378.419,597.527,1376.664,603.52Zm176.022-3a30.48,30.48,0,0,0-4.279,17.943c1.122,13.965,10.255,20.892,19.055,25.824.561.319,1.051.621,1.478.9-.629.1-1.35.194-2.169.254-.913.057-1.957.086-3.1.086a81.736,81.736,0,0,1-14.343-1.264l-3.088-.631c.112-14.036-.04-28.265-.2-42.221q-.093-8.313-.169-16.555l-.017-1.977,4.4-.266,2.1-4c2.246-4.281,4.283-8.505,6.256-12.961-.647,2.586-1.3,5.19-1.957,7.837l-2.472,9.933h10.235c2.63,0,5.624,0,8.857-.01C1563.651,587.528,1556.727,593.279,1552.686,600.518Zm-225.88,38.554q.6-2.049,1.194-4.079c2.027-6.933,4.111-14.057,6.278-20.813,1.169.1,1.869.289,1.869,3.55A29.764,29.764,0,0,1,1326.806,639.072Zm91.377-75.809.117-.157.108-.162a29.794,29.794,0,0,0,4.542-11.7c1.792-12.148-7.71-18.872-13.387-22.889-.459-.324-.914-.646-1.359-.967a43.867,43.867,0,0,0-5.939-3.406,42.1,42.1,0,0,1-6.67-3.923c.481-1.616,2.481-3.336,4.485-4.347,1.466-.7,5.239-1.4,10.412-1.4a42.868,42.868,0,0,1,9.1.833l2.266.542-.076.458,1.706-.068,3.771.9.271-1.064,4.08-.164c1.307-.052,2.655-.115,4.028-.178,2.005-.093,4.046-.188,6.071-.256-2.194,8.778-4.305,17.773-6.366,26.551-2.608,11.114-5.072,21.611-7.6,31.279l-1.071,4.1c-8.945.11-19.495.487-29.245,1.46C1406.2,575.1,1413.265,569.913,1418.183,563.263Zm146.391-21.086-.248.03.019-.056c.327-.926.637-1.817.937-2.686C1565.046,540.368,1564.809,541.27,1564.574,542.177Zm-76.289,17.594q-1.677,6.9-3.385,13.875l-1.049,4.269-1.041-.029c-2.919-.081-6.228-.173-9.6-.173v4h0v-4h0c-1.807,0-3.521.029-5.164.086l.22-.814c3.518-13.033,7.822-27.507,11.984-41.505,2.018-6.788,4.09-13.755,6.036-20.445q.828-.009,1.688-.009c4,0,7.875.143,11.537.3C1495.476,530.179,1491.938,544.739,1488.285,559.771ZM1289.1,581.713v-4h0c-.542,0-1.06.008-1.586.013,1.938-3.322,3.633-6.623,5.266-9.822.066-.131.133-.261.2-.391,3.608-.2,6.963-.3,10.218-.381-.1,2.672-.22,5.312-.405,7.839l-.221,3.022-3.867-.107c-2.919-.081-6.228-.173-9.6-.173v4Zm201.078,6.7,1.619-4.858h.872c1.668,0,3.539.008,5.556.018-6.336,12.283-12.466,24.924-18.441,37.652C1483.035,610.479,1486.438,599.632,1490.178,588.413Zm-237.046-25.737-3.81,8.388-4.807,10.577a188.19,188.19,0,0,0-25.851,1.533l-4.871.741-1.53,4.684c-.245.75-.469,1.481-.706,2.224a22.153,22.153,0,0,0-10.337-7.792h1.9l2.019-5.01c2.442-6.06,3.66-9.65,5.5-15.083.456-1.347.942-2.779,1.493-4.388q2.49.15,4.916.15c17.47,0,32.356-5.679,43.048-16.424a50.5,50.5,0,0,0,5.018-5.88C1261.073,545.2,1257.078,553.982,1253.132,562.676Z"/><path class="b" d="M1205.378,487.6c6.951-2.23,19.279-4.984,30.689-4.591,12.591.393,34.624,2.1,34.886,27.279.131,26.755-22.3,49.706-60.328,44.591-4.591,13.115-5.378,16.263-8.919,25.05-6.557,0-16-.131-23.344.393C1186.755,549.9,1194.624,519.47,1205.378,487.6Zm31.607,41.049c6.558-6.164,10.23-20.852-.787-22.557a24.827,24.827,0,0,0-11.8,1.836c-2.492,8.131-4.459,16.656-6.951,24.918C1225.444,533.9,1232.526,532.453,1236.985,528.65Z"/><path class="b" d="M1260.593,579.273c13.771-30.294,28.46-63.082,44.066-93.247,12.46-1.966,23.476-1.966,35.017-1.573.262,31.869,1.049,64.919-.393,95.608-7.869-.262-16.656-.525-24.525.393.393-5.377.524-11.147.656-16.656-7.476.263-14.558.263-23.476.918-2.492,4.722-4.853,9.705-7.738,14.557A141.923,141.923,0,0,0,1260.593,579.273Zm58.624-37.639c.131-10.885-.525-22.951-1.18-34.1-6.689,11.017-12.722,22.951-18.624,33.837A143.4,143.4,0,0,1,1319.217,541.634Z"/><path class="b" d="M1350.427,557.766a96.182,96.182,0,0,0,21.378,1.442c14.557-1.049,18.754-9.442,4.459-17.574-9.837-5.508-15.607-11.148-16.394-21.377-.525-4.853,1.18-10.492,3.541-14.427,7.607-13.77,27.541-19.541,43.017-20.852a130.833,130.833,0,0,1,25.837.524l-6.82,26.755c-6.033-1.444-19.017-1.705-24.919,1.18-4.721,2.361-9.18,6.82-9.049,12.459,0,6.164,11.935,9.836,16,12.853,5.64,4.065,12.722,8.262,11.542,16.262a22.026,22.026,0,0,1-3.279,8.393c-14.164,19.149-46.952,20.2-68.854,16.132Z"/><path class="b" d="M1511.872,484.978c-2.754,9.311-5.508,18.492-7.345,27.279-6.164-.263-13.246-.526-20.328-.132-6.164,21.509-13.9,46.3-19.672,67.674a159.69,159.69,0,0,0-25.049.262c5.376-20.59,10.623-45.509,16.524-67.8-6.557-.394-14.164.131-20.721.393,1.442-8.656,3.409-17.837,6.95-26.624A531.16,531.16,0,0,1,1511.872,484.978Z"/><path class="b" d="M1566.56,526.027c-1.836,6.689-3.411,11.672-5.771,18.361a293.66,293.66,0,0,0-30.427.132c-1.311,4.589-2.754,8.787-4.2,13.376,8.524,0,24-.524,33.7-1.705a221.091,221.091,0,0,1-10.623,23.608c-17.312,1.049-40.263.655-52.591.655,7.607-30.951,14.3-60.46,24.918-92.984,18.1-2.755,44.329-3.017,62.3-2.492-3.409,8.524-6.95,17.705-10.229,26.361a286.369,286.369,0,0,0-33.312.918c-1.574,4.721-3.148,9.836-4.59,14.688C1544.526,525.634,1558.691,525.765,1566.56,526.027Z"/><path class="b" d="M1632,555.011a204.779,204.779,0,0,1-10.886,24.132c-17.7,1.18-40,1.18-52.721,1.18,7.869-31.607,15.212-60.591,25.967-93.772a148.261,148.261,0,0,1,31.344-2.1c-12.59,30.558-18.885,48.787-26.885,72.919C1607.346,557.372,1622.165,556.191,1632,555.011Z"/><path class="b" d="M1276.39,677.55a118.694,118.694,0,0,0-23.555,0c6.49-28.723,13.1-55.523,22.955-85.567,8.652-1.682,18.026-1.442,26.679-1.2C1292.494,620.706,1284.923,647.746,1276.39,677.55Z"/><path class="b" d="M1314,592.944a75.223,75.223,0,0,1,21.873-4.326c17.786-.36,34.852,3.606,37.856,26.2,2.4,18.147-6.73,39.3-21.151,50.835-10.936,8.774-25.839,12.619-41.1,12.619a72.878,72.878,0,0,1-21.271-3.125C1298.021,646.3,1304.15,622.629,1314,592.944Zm34.131,29.685c0-8.653-4.927-11.177-9.374-11.537a19.562,19.562,0,0,0-6.61.961c-4.807,14.3-9.013,30.285-13.58,44.706C1335.276,657.12,1348.135,639.814,1348.135,622.629Z"/><path class="b" d="M1435.143,627.916c-1.683,6.13-3.125,10.7-5.289,16.825a269.931,269.931,0,0,0-27.881.12c-1.2,4.206-2.523,8.052-3.846,12.259,7.812,0,21.993-.481,30.887-1.562a202.811,202.811,0,0,1-9.735,21.631c-15.863.962-36.9.6-48.192.6,6.971-28.361,13.1-55.4,22.834-85.206,16.585-2.523,40.621-2.764,57.085-2.283-3.125,7.811-6.369,16.223-9.374,24.155a262.473,262.473,0,0,0-30.525.842c-1.442,4.326-2.884,9.014-4.207,13.46C1414.953,627.556,1427.932,627.676,1435.143,627.916Z"/><path class="b" d="M1460.5,677.55a118.693,118.693,0,0,0-23.555,0c6.49-28.723,13.1-55.523,22.954-85.567,8.653-1.682,18.027-1.442,26.68-1.2C1476.6,620.706,1469.03,647.746,1460.5,677.55Z"/><path class="b" d="M1469.39,676.709c12.618-27.762,26.078-57.806,40.38-85.447,11.417-1.8,21.511-1.8,32.087-1.442.241,29.2.961,59.489-.36,87.61-7.211-.241-15.263-.481-22.474.36.361-4.927.481-10.215.6-15.263-6.85.242-13.34.242-21.512.842-2.283,4.326-4.446,8.893-7.091,13.34A129.658,129.658,0,0,0,1469.39,676.709Zm53.719-34.491c.12-9.975-.481-21.031-1.081-31.246-6.13,10.094-11.658,21.031-17.066,31.006A131.265,131.265,0,0,1,1523.109,642.218Z"/><path class="b" d="M1551.709,657a88.1,88.1,0,0,0,19.59,1.321c13.34-.961,17.185-8.652,4.086-16.1-9.014-5.048-14.3-10.215-15.023-19.589a22.828,22.828,0,0,1,3.245-13.22c6.971-12.619,25.238-17.907,39.418-19.108a119.989,119.989,0,0,1,23.676.48l-6.25,24.517c-5.527-1.322-17.426-1.563-22.834,1.081-4.326,2.164-8.412,6.25-8.292,11.417,0,5.648,10.937,9.014,14.661,11.778,5.168,3.725,11.659,7.571,10.577,14.9a20.193,20.193,0,0,1-3,7.691c-12.98,17.546-43.025,18.508-63.094,14.782Z"/><path class="b" d="M1177.454,596.191a43.679,43.679,0,0,1,12.7-2.512c10.327-.209,20.236,2.093,21.98,15.212,1.4,10.536-3.907,22.817-12.28,29.516-6.351,5.094-15,7.326-23.865,7.326a42.35,42.35,0,0,1-12.351-1.813C1168.173,627.173,1171.731,613.426,1177.454,596.191Zm19.817,17.235c0-5.024-2.861-6.489-5.443-6.7a11.349,11.349,0,0,0-3.838.558c-2.791,8.3-5.233,17.584-7.885,25.957C1189.8,633.453,1197.271,623.4,1197.271,613.426Z"/><path class="b" d="M1247.789,616.5c-.976,3.56-1.814,6.211-3.07,9.77a156.59,156.59,0,0,0-16.189.069c-.7,2.442-1.465,4.676-2.233,7.118,4.536,0,12.77-.279,17.933-.907a117.389,117.389,0,0,1-5.651,12.559c-9.211.559-21.423.349-27.982.349,4.048-16.467,7.606-32.167,13.258-49.473,9.63-1.464,23.585-1.6,33.145-1.325-1.814,4.535-3.7,9.42-5.443,14.026a152.384,152.384,0,0,0-17.724.488c-.837,2.512-1.674,5.233-2.442,7.815C1236.066,616.287,1243.6,616.357,1247.789,616.5Z"/></g></svg>