<svg xmlns="http://www.w3.org/2000/svg" width="736.449" height="263.06" viewBox="0 0 736.449 263.06"><defs><style>.a{fill:#a03400;}.b{fill:#ffca00;}.c{fill:#694f19;}.d{fill:#951b1c;}.e{fill:#5b6069;}.f{fill:#f7f4ec;}.g{fill:#796234;}.h{fill:#7f6637;}.i{fill:#565a64;}.j{fill:#fdc857;}.k{fill:#fcc856;}.l{fill:#eead21;}.m{fill:#fafaf6;}.n{fill:#eeae21;}.o{fill:#edad21;}.p{fill:#fbc756;}.q{fill:#ecad21;}.r{fill:#9fada8;}.s{fill:#ecac21;}.t{fill:#ebac21;}.u{fill:#869c92;}.v{fill:#ebac22;}.w{fill:#f4c657;}.x{fill:#5c5e66;}.y{fill:#646368;}.z{fill:#84611e;}.aa{fill:#ebad25;}.ab{fill:#7c5e1c;}.ac{fill:#946f1d;}.ad{fill:#9f7923;}.ae{fill:#ed3e3e;}.af{fill:#f4dad8;}.ag{fill:#f9e4e2;}.ah{fill:#f1dad7;}.ai{fill:#a7b4b0;}.aj{fill:#e9e2d5;}.ak{fill:#e5e3e0;}.al{fill:#675017;}.am{fill:#e9dfc3;}.an{fill:#fdfdfd;}.ao{fill:#ced1db;}.ap{fill:#c6c9d3;}.aq{fill:#a5aab6;}.ar{fill:#595a66;}.as{fill:#f5f6f4;}.at{fill:#f5f6f3;}.au{fill:#847c6c;}.av{fill:#605e66;}.aw{fill:#6b6765;}.ax{fill:#666568;}.ay{fill:#6e6864;}.az{fill:#efaf22;}.ba{fill:#807363;}.bb{fill:#efae21;}.bc{fill:#ecad23;}.bd{fill:#9fabaa;}.be{fill:#ec3e3d;}.bf{fill:#ed3f3f;}.bg{fill:#e84e53;}.bh{fill:#f2f3f2;}.bi{fill:#5a5e6a;}.bj{fill:#9eaca7;}</style></defs><g transform="translate(-522 -61.364)"><g transform="translate(-381.914 -383.073)"><path class="a" d="M1640.363,540.572l-13.3,1.6c-5.911.71-13.861,1.434-20.981,1.877,6.162-18.285,12.347-35.5,23.035-61.444l4.437-10.771-11.646-.274c-2.139-.051-4.09-.075-5.965-.075a147.6,147.6,0,0,0-24.775,1.93l.4-.995-11.448-.335c-5.069-.148-10.332-.223-15.641-.223-13.1,0-31.609.461-46.582,2.588l.527-1.782-10.082-.573c-8.262-.47-17.111-.708-26.3-.708v4h0v-4h0c-14.736,0-30.1.612-44.437,1.77l-1.944.157-6.571-.667a164.637,164.637,0,0,0-16.961-.987c-3.484,0-6.878.148-10.376.452a90.146,90.146,0,0,0-26.883,6.356c-10.482,4.433-18.01,10.648-22.375,18.475-2.715,4.579-5.311,11.96-4.574,19.149,1.195,14.908,10.991,22.326,20.431,27.615a25.163,25.163,0,0,1,3.029,1.99,23.082,23.082,0,0,1-4.1.634c-1.011.063-2.165.1-3.43.1a90.1,90.1,0,0,1-15.8-1.4l-3.958-.809c.132-15.5-.037-31.226-.211-46.646q-.1-9.081-.185-18.085l-.063-7.669-7.664-.261c-4.208-.143-7.666-.21-10.882-.21a160.941,160.941,0,0,0-25.655,1.877l-4,.631-1.86,3.6c-6.931,13.395-13.629,27.2-20.164,41.1a53.878,53.878,0,0,0,1.563-13.2c-.184-17.682-9.449-26.083-17.189-30.024-8.142-4.146-17.433-4.961-25.447-5.212-.793-.027-1.635-.042-2.479-.042h0a108.689,108.689,0,0,0-30.9,5.011l-3.845,1.234-1.292,3.826c-8.959,26.549-16,52.342-22.8,77.286q-2.166,7.941-4.345,15.867l-3.011,10.914,7.325-.523c-.089.032-.184.064-.271.1l-3.617,1.33-1.215,3.658c-5.1,15.369-8.457,27.809-12.341,42.215q-.786,2.918-1.6,5.943l-2.013,7.433,7.351,2.3A49.905,49.905,0,0,0,1172,648.835c10.09,0,19.023-2.43,26.07-7.056l-1.665,6.776h10.2c1.254,0,2.716.008,4.325.017,2,.01,4.225.022,6.558.022,4.7,0,11.642-.042,17.583-.4l4.5-.273,2.1-3.995a124.741,124.741,0,0,0,6.028-13.388l4.816-12.441-2.36.287c.461-1.488.895-2.984,1.357-4.668l.472-1.721,1.008.046,2.054-5.422c1.974-5.211,3.787-9.883,5.39-13.888l4.254-10.634-2.533-.074q1.443-.066,2.915-.1l-.876,2.672c-9.755,29.739-16.312,56.007-23.156,86.3l-2.475,10.954,11.161-1.24a95.006,95.006,0,0,1,10.392-.537c3.748,0,7.629.185,11.534.551l6.61.62,1.338-4.674,4.231,1.322a81.5,81.5,0,0,0,23.657,3.489c18.438,0,34.382-4.972,46.108-14.379a60.883,60.883,0,0,0,8.835-8.737l0,.014q-1.536,6.324-3.1,12.711l-2.436,9.909h10.2c2.168,0,4.7.014,7.477.029,3.436.018,7.254.038,11.26.038,8.026,0,19.861-.071,29.939-.682l4.5-.273,2.1-4c1.022-1.947,1.994-3.882,2.938-5.834-.054.24-.108.475-.162.715l-2.475,10.954,11.161-1.24a95.006,95.006,0,0,1,10.392-.537c2.774,0,5.62.1,8.495.3l-.287.632,3.8-.34,6.132.575.33-1.153,3.411-.3c3.113-.279,6.407-.42,9.788-.42,3.408,0,6.94.144,10.5.426l4.965.4,2.545-4.281c1.956-3.291,3.623-6.555,5.234-9.712l.008-.017c2.892-.151,5.609-.238,8.248-.309-.083,2.2-.191,4.365-.343,6.447l-.706,9.65,9.611-1.12a95.5,95.5,0,0,1,10.964-.533c3.372,0,6.8.1,10.316.222l7.887.262.024-.5a116.3,116.3,0,0,0,18.669,1.533c22.917,0,40.738-7.029,50.18-19.793l.117-.158.109-.163a28.005,28.005,0,0,0,4.266-11c1.7-11.536-7.216-17.846-12.545-21.616-.418-.295-.832-.588-1.237-.88a40.64,40.64,0,0,0-5.532-3.176,44.643,44.643,0,0,1-5.617-3.212,8.241,8.241,0,0,1,3.606-3.168c.967-.46,3.967-1.22,9.246-1.219a39.183,39.183,0,0,1,8.187.744l7.666,1.834,1.947-7.639,6.25-24.516,2.294-9-8.564-.868a212.638,212.638,0,0,0,11.264-24.951Zm-416.246-21.031q.227-.844.449-1.682c.777-2.915,1.526-5.721,2.308-8.473a18.048,18.048,0,0,1,3.174-.278c.39,0,.784.012,1.174.036h0c.289,1.663-.984,6.1-3.561,8.641A10.2,10.2,0,0,1,1224.117,519.541Zm152.547,83.979c-1.965-8.016-5.811-14.368-11.487-18.975a101.983,101.983,0,0,0,17.916-1.684l-.764,2.341C1380.291,591.441,1378.419,597.527,1376.664,603.52Zm176.022-3a30.48,30.48,0,0,0-4.279,17.943c1.122,13.965,10.255,20.892,19.055,25.824.561.319,1.051.621,1.478.9-.629.1-1.35.194-2.169.254-.913.057-1.957.086-3.1.086a81.736,81.736,0,0,1-14.343-1.264l-3.088-.631c.112-14.036-.04-28.265-.2-42.221q-.093-8.313-.169-16.555l-.017-1.977,4.4-.266,2.1-4c2.246-4.281,4.283-8.505,6.256-12.961-.647,2.586-1.3,5.19-1.957,7.837l-2.472,9.933h10.235c2.63,0,5.624,0,8.857-.01C1563.651,587.528,1556.727,593.279,1552.686,600.518Zm-225.88,38.554q.6-2.049,1.194-4.079c2.027-6.933,4.111-14.057,6.278-20.813,1.169.1,1.869.289,1.869,3.55A29.764,29.764,0,0,1,1326.806,639.072Zm91.377-75.809.117-.157.108-.162a29.794,29.794,0,0,0,4.542-11.7c1.792-12.148-7.71-18.872-13.387-22.889-.459-.324-.914-.646-1.359-.967a43.867,43.867,0,0,0-5.939-3.406,42.1,42.1,0,0,1-6.67-3.923c.481-1.616,2.481-3.336,4.485-4.347,1.466-.7,5.239-1.4,10.412-1.4a42.868,42.868,0,0,1,9.1.833l2.266.542-.076.458,1.706-.068,3.771.9.271-1.064,4.08-.164c1.307-.052,2.655-.115,4.028-.178,2.005-.093,4.046-.188,6.071-.256-2.194,8.778-4.305,17.773-6.366,26.551-2.608,11.114-5.072,21.611-7.6,31.279l-1.071,4.1c-8.945.11-19.495.487-29.245,1.46C1406.2,575.1,1413.265,569.913,1418.183,563.263Zm146.391-21.086-.248.03.019-.056c.327-.926.637-1.817.937-2.686C1565.046,540.368,1564.809,541.27,1564.574,542.177Zm-76.289,17.594q-1.677,6.9-3.385,13.875l-1.049,4.269-1.041-.029c-2.919-.081-6.228-.173-9.6-.173v4h0v-4h0c-1.807,0-3.521.029-5.164.086l.22-.814c3.518-13.033,7.822-27.507,11.984-41.505,2.018-6.788,4.09-13.755,6.036-20.445q.828-.009,1.688-.009c4,0,7.875.143,11.537.3C1495.476,530.179,1491.938,544.739,1488.285,559.771ZM1289.1,581.713v-4h0c-.542,0-1.06.008-1.586.013,1.938-3.322,3.633-6.623,5.266-9.822.066-.131.133-.261.2-.391,3.608-.2,6.963-.3,10.218-.381-.1,2.672-.22,5.312-.405,7.839l-.221,3.022-3.867-.107c-2.919-.081-6.228-.173-9.6-.173v4Zm201.078,6.7,1.619-4.858h.872c1.668,0,3.539.008,5.556.018-6.336,12.283-12.466,24.924-18.441,37.652C1483.035,610.479,1486.438,599.632,1490.178,588.413Zm-237.046-25.737-3.81,8.388-4.807,10.577a188.19,188.19,0,0,0-25.851,1.533l-4.871.741-1.53,4.684c-.245.75-.469,1.481-.706,2.224a22.153,22.153,0,0,0-10.337-7.792h1.9l2.019-5.01c2.442-6.06,3.66-9.65,5.5-15.083.456-1.347.942-2.779,1.493-4.388q2.49.15,4.916.15c17.47,0,32.356-5.679,43.048-16.424a50.5,50.5,0,0,0,5.018-5.88C1261.073,545.2,1257.078,553.982,1253.132,562.676Z"/><path class="b" d="M1205.378,487.6c6.951-2.23,19.279-4.984,30.689-4.591,12.591.393,34.624,2.1,34.886,27.279.131,26.755-22.3,49.706-60.328,44.591-4.591,13.115-5.378,16.263-8.919,25.05-6.557,0-16-.131-23.344.393C1186.755,549.9,1194.624,519.47,1205.378,487.6Zm31.607,41.049c6.558-6.164,10.23-20.852-.787-22.557a24.827,24.827,0,0,0-11.8,1.836c-2.492,8.131-4.459,16.656-6.951,24.918C1225.444,533.9,1232.526,532.453,1236.985,528.65Z"/><path class="b" d="M1260.593,579.273c13.771-30.294,28.46-63.082,44.066-93.247,12.46-1.966,23.476-1.966,35.017-1.573.262,31.869,1.049,64.919-.393,95.608-7.869-.262-16.656-.525-24.525.393.393-5.377.524-11.147.656-16.656-7.476.263-14.558.263-23.476.918-2.492,4.722-4.853,9.705-7.738,14.557A141.923,141.923,0,0,0,1260.593,579.273Zm58.624-37.639c.131-10.885-.525-22.951-1.18-34.1-6.689,11.017-12.722,22.951-18.624,33.837A143.4,143.4,0,0,1,1319.217,541.634Z"/><path class="b" d="M1350.427,557.766a96.182,96.182,0,0,0,21.378,1.442c14.557-1.049,18.754-9.442,4.459-17.574-9.837-5.508-15.607-11.148-16.394-21.377-.525-4.853,1.18-10.492,3.541-14.427,7.607-13.77,27.541-19.541,43.017-20.852a130.833,130.833,0,0,1,25.837.524l-6.82,26.755c-6.033-1.444-19.017-1.705-24.919,1.18-4.721,2.361-9.18,6.82-9.049,12.459,0,6.164,11.935,9.836,16,12.853,5.64,4.065,12.722,8.262,11.542,16.262a22.026,22.026,0,0,1-3.279,8.393c-14.164,19.149-46.952,20.2-68.854,16.132Z"/><path class="b" d="M1511.872,484.978c-2.754,9.311-5.508,18.492-7.345,27.279-6.164-.263-13.246-.526-20.328-.132-6.164,21.509-13.9,46.3-19.672,67.674a159.69,159.69,0,0,0-25.049.262c5.376-20.59,10.623-45.509,16.524-67.8-6.557-.394-14.164.131-20.721.393,1.442-8.656,3.409-17.837,6.95-26.624A531.16,531.16,0,0,1,1511.872,484.978Z"/><path class="b" d="M1566.56,526.027c-1.836,6.689-3.411,11.672-5.771,18.361a293.66,293.66,0,0,0-30.427.132c-1.311,4.589-2.754,8.787-4.2,13.376,8.524,0,24-.524,33.7-1.705a221.091,221.091,0,0,1-10.623,23.608c-17.312,1.049-40.263.655-52.591.655,7.607-30.951,14.3-60.46,24.918-92.984,18.1-2.755,44.329-3.017,62.3-2.492-3.409,8.524-6.95,17.705-10.229,26.361a286.369,286.369,0,0,0-33.312.918c-1.574,4.721-3.148,9.836-4.59,14.688C1544.526,525.634,1558.691,525.765,1566.56,526.027Z"/><path class="b" d="M1632,555.011a204.779,204.779,0,0,1-10.886,24.132c-17.7,1.18-40,1.18-52.721,1.18,7.869-31.607,15.212-60.591,25.967-93.772a148.261,148.261,0,0,1,31.344-2.1c-12.59,30.558-18.885,48.787-26.885,72.919C1607.346,557.372,1622.165,556.191,1632,555.011Z"/><path class="b" d="M1276.39,677.55a118.694,118.694,0,0,0-23.555,0c6.49-28.723,13.1-55.523,22.955-85.567,8.652-1.682,18.026-1.442,26.679-1.2C1292.494,620.706,1284.923,647.746,1276.39,677.55Z"/><path class="b" d="M1314,592.944a75.223,75.223,0,0,1,21.873-4.326c17.786-.36,34.852,3.606,37.856,26.2,2.4,18.147-6.73,39.3-21.151,50.835-10.936,8.774-25.839,12.619-41.1,12.619a72.878,72.878,0,0,1-21.271-3.125C1298.021,646.3,1304.15,622.629,1314,592.944Zm34.131,29.685c0-8.653-4.927-11.177-9.374-11.537a19.562,19.562,0,0,0-6.61.961c-4.807,14.3-9.013,30.285-13.58,44.706C1335.276,657.12,1348.135,639.814,1348.135,622.629Z"/><path class="b" d="M1435.143,627.916c-1.683,6.13-3.125,10.7-5.289,16.825a269.931,269.931,0,0,0-27.881.12c-1.2,4.206-2.523,8.052-3.846,12.259,7.812,0,21.993-.481,30.887-1.562a202.811,202.811,0,0,1-9.735,21.631c-15.863.962-36.9.6-48.192.6,6.971-28.361,13.1-55.4,22.834-85.206,16.585-2.523,40.621-2.764,57.085-2.283-3.125,7.811-6.369,16.223-9.374,24.155a262.473,262.473,0,0,0-30.525.842c-1.442,4.326-2.884,9.014-4.207,13.46C1414.953,627.556,1427.932,627.676,1435.143,627.916Z"/><path class="b" d="M1460.5,677.55a118.693,118.693,0,0,0-23.555,0c6.49-28.723,13.1-55.523,22.954-85.567,8.653-1.682,18.027-1.442,26.68-1.2C1476.6,620.706,1469.03,647.746,1460.5,677.55Z"/><path class="b" d="M1469.39,676.709c12.618-27.762,26.078-57.806,40.38-85.447,11.417-1.8,21.511-1.8,32.087-1.442.241,29.2.961,59.489-.36,87.61-7.211-.241-15.263-.481-22.474.36.361-4.927.481-10.215.6-15.263-6.85.242-13.34.242-21.512.842-2.283,4.326-4.446,8.893-7.091,13.34A129.658,129.658,0,0,0,1469.39,676.709Zm53.719-34.491c.12-9.975-.481-21.031-1.081-31.246-6.13,10.094-11.658,21.031-17.066,31.006A131.265,131.265,0,0,1,1523.109,642.218Z"/><path class="b" d="M1551.709,657a88.1,88.1,0,0,0,19.59,1.321c13.34-.961,17.185-8.652,4.086-16.1-9.014-5.048-14.3-10.215-15.023-19.589a22.828,22.828,0,0,1,3.245-13.22c6.971-12.619,25.238-17.907,39.418-19.108a119.989,119.989,0,0,1,23.676.48l-6.25,24.517c-5.527-1.322-17.426-1.563-22.834,1.081-4.326,2.164-8.412,6.25-8.292,11.417,0,5.648,10.937,9.014,14.661,11.778,5.168,3.725,11.659,7.571,10.577,14.9a20.193,20.193,0,0,1-3,7.691c-12.98,17.546-43.025,18.508-63.094,14.782Z"/><path class="b" d="M1177.454,596.191a43.679,43.679,0,0,1,12.7-2.512c10.327-.209,20.236,2.093,21.98,15.212,1.4,10.536-3.907,22.817-12.28,29.516-6.351,5.094-15,7.326-23.865,7.326a42.35,42.35,0,0,1-12.351-1.813C1168.173,627.173,1171.731,613.426,1177.454,596.191Zm19.817,17.235c0-5.024-2.861-6.489-5.443-6.7a11.349,11.349,0,0,0-3.838.558c-2.791,8.3-5.233,17.584-7.885,25.957C1189.8,633.453,1197.271,623.4,1197.271,613.426Z"/><path class="b" d="M1247.789,616.5c-.976,3.56-1.814,6.211-3.07,9.77a156.59,156.59,0,0,0-16.189.069c-.7,2.442-1.465,4.676-2.233,7.118,4.536,0,12.77-.279,17.933-.907a117.389,117.389,0,0,1-5.651,12.559c-9.211.559-21.423.349-27.982.349,4.048-16.467,7.606-32.167,13.258-49.473,9.63-1.464,23.585-1.6,33.145-1.325-1.814,4.535-3.7,9.42-5.443,14.026a152.384,152.384,0,0,0-17.724.488c-.837,2.512-1.674,5.233-2.442,7.815C1236.066,616.287,1243.6,616.357,1247.789,616.5Z"/></g><g transform="translate(-33.057 -274.293)"><g transform="translate(555.057 335.657)"><path class="c" d="M650.784,390.09c4.963-6.606,7.39-13.84,6.367-22.259-.853-7.011.629-13.486,6.465-18.249,7.824-6.386,14.411-6.316,20.694,1.515,4.093,5.1,9.828,7.92,14.769,11.223,8.909,5.958,13.92,15.766,23.168,21a7.953,7.953,0,0,1,1.141.89c3.589,3.007,13.965,23.03,14.062,27.889.048,2.424,1.209,4.037,2.372,5.851,5.082,7.92,7.979,16.348,5.661,25.885-1.095,4.5,2.411,8.227,2,12.626-1.373,14.7,1.15,29.643-2.891,44.189-.42,1.514.2,3.318.338,4.987a7.374,7.374,0,0,1,.667,2.929,32.418,32.418,0,0,1-1.295,4.846,10.21,10.21,0,0,1-2.4,4.344c-.8,9.339-6.5,17.169-8.166,26.192-1.469,7.941-7.886,12.929-10.986,19.843-.432,1.364.122,3.07-.889,4.153-9.312,9.987-18.2,20.681-33.679,20.682-6.454,0-11.968-3.863-14.6-11.8-1.965-5.914-4.244-8.852-10.518-4.95-1.786,1.111-4.1,1.315-6.22,1.728-9.277,1.812-14.105-1.879-14.839-11.3-.906-4.805-3.718-8.727-5.98-12.9-.336-1.495.494-1.839,1.746-1.775,5.455,3.2,6.3,9.128,8.452,14.287.757,2.028,1.346,4.179,3.551,5.21,1.577.738,3.352,1.179,4.889.373,2.275-1.192.584-2.9.128-4.353-.432-1.379-1.118-2.713-.85-4.193.381-2.116,1.344-3.145,3.375-1.421a20.551,20.551,0,0,1,1.755,2.278c1.547,1.736,2.105,6.281,5.205,4.07,2.33-1.663-.942-4.179-2.466-5.788-3.273-3.454-4.037-8.187-6.558-11.991-2.189-3-4.4-5.987-6.31-9.18-2.285-4.657-5.249-8.964-7.182-13.808-4.8-9.911-7.511-20.494-10.047-31.135a21.064,21.064,0,0,1-.4-3.3,23.255,23.255,0,0,0-1.022-6.6,18.424,18.424,0,0,1-.539-3.535c-.119-13.654-.748-27.319.986-40.915a24.67,24.67,0,0,1,1-7.846c1.614-5.537,2-11.416,4.536-16.709.938-1.959.335-3.755-.589-5.519.278-3.9,4.68-3.331,6.352-5.881,1.57-2.394,2.991-4.744,3.4-7.612.421-.953.873-1.86,2.171-1.151C649.764,393.2,650.456,391.852,650.784,390.09Z" transform="translate(-521.54 -331.456)"/><path class="d" d="M666.621,433.568a12.981,12.981,0,0,1-1.3,7.012c.492,8.794-5.378,13.09-11.93,16.908-1.5.65-3.078,1.119-4.585,1.765-1.138.506-2.289.989-3.467,1.4a36.662,36.662,0,0,0-4.234,1.651,35.026,35.026,0,0,1-3.365,1.431c-2.581.9-5.2,1.694-7.727,2.739a19.3,19.3,0,0,1-3.345,1.2c-1.454.27-2.813-.5-4.256-.406-4.946,1.878-9.824,3.963-14.848,5.593-14.449,4.686-26.719-.606-30.779-15.171-4.266-15.306-15.586-26.8-20.147-41.861-4.2-13.876-.2-21.818,14.256-24.429,2.029-.367,3.594-.811,4.841-2.545,2.22-3.087,5.635-5.488,9.059-5.385,7.669.231,12.21-5.91,18.66-7.859,2.743-.829,2.529-2.243,1.7-4.327-1.6-4.028-3.219-8.06-4.533-12.186-3.37-10.569.454-19.131,9.822-22.382,9.143-3.171,17.2.827,21.278,10.837a152.434,152.434,0,0,1,6.4,17.648c4.656,17.266,18.094,30.522,21.722,48.21.289,1.4.786,2.761,1.186,4.14,1.962,1.031,3.676,2.292,4.264,4.6C666.194,425.9,667.646,429.594,666.621,433.568Z" transform="translate(-555.057 -335.657)"/><path class="e" d="M601.508,426.62l3.85-.618c3.2,1.357,4.2,4.567,5.807,7.174,6.676,10.846,15.815,17.34,28.989,17.124a7.36,7.36,0,0,1,5.408,1.636l.041,2.729c-4.5,3.971-9.463,2.033-14.337,1.135a16.507,16.507,0,0,0-5.89-.842c-7.422-7.5-16.431-13.628-20.527-24C604.173,429.25,603.644,427.276,601.508,426.62Z" transform="translate(-534.155 -295.003)"/><path class="f" d="M617.969,446.679c.435-4.741,2.971-.528,4.4-1.032a7.591,7.591,0,0,1,2.368,5.153c.927,10.341,5.379,19.968,6.087,30.346a2.811,2.811,0,0,1-2.508,2.159c-6.552-9.467-9.223-20.2-10.28-31.467Z" transform="translate(-526.748 -286.724)"/><path class="g" d="M618.4,449.53c3.03,10.489,4.813,21.4,10.534,30.974,3.576,2.545,5.133,6.67,7.8,9.928,1.269,3.931,7.093,5.258,6.038,10.518l-1.177,1.411c-10.972-11.027-17.74-24.451-22.314-39.126C619.356,458.643,615.114,454.329,618.4,449.53Z" transform="translate(-527.117 -284.417)"/><path class="h" d="M630.843,403.753l-2.7-4.451c3.987-1.32,1.58-4.259,1.569-6.513-.028-5.9,1.6-11.033,6.921-14.142,3.757-2.2,7.824-4.238,11.6.206l-1.447,1.192c-6.287,1.243-12.661,2.384-12.489,10.986C633.456,395.362,636.613,400.779,630.843,403.753Z" transform="translate(-522.169 -317.407)"/><path class="a" d="M643.633,494.866c5.239,12.41,16,13.669,28.217,3.158,3.056,2.714,3.389,6.716,4.666,10.2,3.636,9.929,7.064,11.9,17.347,10.338,8.094-1.228,15.043-3.215,19.721-11.252,2.411-4.143,8.927-5.481,10.8-10.962,2.885,1.672,5.785,3.319,8.653,5.018,7.673,4.546,7.712,10.7.142,15.5-7.679,4.866-16.322,7.069-25.114,8.268-21.307,2.907-42.583,2.957-63.57-2.621-4.882-1.3-9.686-2.916-13.749-6.077-6.769-5.266-6.354-10.634.851-15.439C635.393,498.46,640.4,498.421,643.633,494.866Z" transform="translate(-523.171 -264.017)"/><path class="i" d="M709.781,477.358q.148-1.453.3-2.9c8.384,4.907,11.941,4.551,16.028-1.46,1.875-2.761,3.323-5.378,0-8.123a2.886,2.886,0,0,1-1.035-1.862c-.31-13.537-5.733-27.4,2.5-40.4.257-.4.536-1.106.839-1.125,7.534-.455,12.342-9.512,20.914-6.631a3.536,3.536,0,0,0,1.395.341c15.112-1.814,18.1,10.565,23.42,20.1,1.847,3.31,1.089,6.744-1.4,9.374-3.918,4.131-7.843,8.4-13.708,9.9-.425-4.994,3.889-6.712,6.671-9.37,5.4-5.16,3.551-18.989-2.984-18.5-6.157.464-12.322-7.263-18.531,0-1.6,1.873-4.489-1.792-6.876-2.7-4.44-1.609-6.226-.216-5.11,4.489a4.691,4.691,0,0,1-.2,1.984c-4.172,5.323-8.049,10.7-3.631,17.777.02,3.425,6.184,5.822,1.739,10.027-.2,6.512,7.311,11.343,14.608,9.4a7.5,7.5,0,0,0,4.7-3.116c1.4-1.95,1.733-4.372,2.842-6.416,1.438-2.655,2.922-5.624,6.906-3.713-1.345,2.429-2.914,4.667-3.409,7.591-.342,2.024-1.357,4.873-2.9,5.6-8.126,3.825-10.842,12.316-16.531,18.167-8.221,8.453-15.6,8.555-29.271.78-.058-1.6-.328-3.261,1.118-4.491,1.847-.045,3.022,1.275,4.43,2.149,9.058,5.616,18.76,3.139,23.932-6.068.819-1.46,2.085-2.929.191-4.406a4.34,4.34,0,0,0-4.765-.407c-2.448,1.2-3.706,3.7-5.674,5.443C720.6,483.828,714.673,483.325,709.781,477.358Z" transform="translate(-486.69 -300.276)"/><path class="j" d="M655.277,381.161c1.04-6.22,3.4-12.254,2.653-18.726-.421-1.534-1.2-3.457.635-4.256,2.168-.944,3.867.755,5.453,2.091,4.141,7.234,9.5,13,18.067,14.861,2.111.331,4.115.886,5.536,2.646,2.156,4.641,2.635,10.551,9.055,11.98,2.368.735,4.676,1.565,5.943,3.948.465,4.448,2.761,8.188,4.7,12.067l1.849,1.347c.463,1.248-.242,1.946-1.186,2.53-4.082,1.053-8.594.233-12.5,3.009,5.716.983,12.828-1.566,15.59,6.27-.673,4.337-.568,8.778-1.762,13.044-4.493,1.5-9.013-2.864-13.491.074-3.827,1.784-5.355,4.949-5.408,9a29.008,29.008,0,0,0,.141,5.033c1.5,8.648,7.9,11.321,15.072,6.3,1.174-.822,2.21-1.859,3.729-2.075a2.293,2.293,0,0,1,1.828,1.063c1.292,3.254,2.326,6.532,1.143,10.063-2.29,3-5.61,4.359-9,5.574a92.246,92.246,0,0,1-41.405,5.305c-3.3,2.607-1.717,4.811.586,6.954,2.54,3.423,2.429,7.7,3.645,11.54,1.48,4.689,4.353,7.437,9.331,7.338,4.58-.091,8.951,1.985,13.515,1.269,3.073-.483,6.11-1.389,7.844-4.415.328-.6.693-1.179,1.057-1.757,4.464-8.535,7.527-17.669,11.374-26.469a6.564,6.564,0,0,1,2.651-3.244c3.8.267,4.377,3.226,3.225,5.552-2.274,4.585-1.331,9.149-1.2,13.772-1.1,4.018-2.043,8.059-1.77,12.271a14.156,14.156,0,0,1-.152,2.027c-1.636,5.429-6.188,10.08-4.383,16.441-6.547,8.175-7.865,18.484-11.362,27.9-.407,1.1-.423,2.334-.813,3.465-2.318,4.177-6.075,7.406-7.865,11.939a34.071,34.071,0,0,1-14.593,5.365c-3.85-11.262-13.682-18.593-18.986-28.9a139.053,139.053,0,0,1-17.361-53.079c-2.594-21.864-2.493-43.646,2.707-65.227C642.368,402.635,650.163,392.542,655.277,381.161Z" transform="translate(-519.083 -325.645)"/><path class="k" d="M641.042,502.872l-6.964-9.4c-1.4-4.388-5.239-7.712-5.49-12.6-3.622-11.636-6.916-23.345-7.585-35.61a48.307,48.307,0,0,0,15.829.741c3.11,10.879,5.9,21.866,10.375,32.307a10.19,10.19,0,0,1,.742,6.157c-.689,5.008,1.576,6.9,6.251,6.737l5.967,8.913c.613,7.266-3.206,12.986-11.387,17.057C646.434,512.278,644.909,506.94,641.042,502.872Z" transform="translate(-525.383 -286.338)"/><path class="l" d="M676.044,496.827c-1.183-5.353,2.21-9.724,3.42-14.52,1-3.963,3.206-7.557,3.616-11.9.276-2.9,2.688-5.039,5.985-5.419q1.986-.546,1.5,1.454c3.984,6.895,10.269,10.615,17.761,12.315,3.695.837,4.753,2.63,3.813,6.084-.954,3.51-2.674,5.453-6.748,4.34-7.051-1.928-12.89-5.9-18.568-10.325,2.958,6.525,8.756,9.545,14.927,11.994,2.977,1.182,7.615,1.019,5.709,6.08-1.665,4.418-4.982,7.038-10.263,5.226-6.258-2.15-11.609-5.64-17.084-12.146,2.33,9.061,8.562,11.173,14.233,13.878,1.828.873,4.812.47,4.791,3.452-.028,3.673-2.282,6.212-5.287,8.1-2.237,1.405-4.216,1.563-6.538-.294-4.649-3.721-8.133-8.124-9.774-13.9C676.238,500.048,675.222,498.747,676.044,496.827Z" transform="translate(-500.75 -277.512)"/><path class="l" d="M689.9,454.542c-1.624-4.575-4.18-9,.69-13.495,1.93-1.781.08-3.911-1.636-5.381-1.557-.8-1.347-1.886-.51-3.08a23.655,23.655,0,0,1-1.411-10c-.331-1.422.529-1.86,1.693-2.05,1.879.515,3.452,1.253,2.677,3.692,6.281,5.069,13.559,8.005,21.284,10.029,6.133,1.605,8.929,10.915,4.947,15.686-1.781,2.133-3.535.848-5.252.526-7.568-1.418-13-6.584-18.934-10.933,4.18,7.495,10.518,12.318,18.9,13.6,6.526,1,5.275,5.155,4.654,9.116-.744,4.752-4.077,4.405-7.709,3.531-7.354-1.769-12.1-7.637-18.239-11.313C690.715,455.237,690.329,455.225,689.9,454.542Z" transform="translate(-495.72 -297.463)"/><path class="m" d="M656.266,373.944c-.247,5.487-2.868,10.185-5.5,14.687-11.429,19.531-12.667,40.952-12.555,62.791.135,26.184,6.951,50.768,16.81,74.714-14.316-18.758-20.092-40.489-21.776-63.538-1.108-15.177.058-30.346,1.8-45.4C636.992,400.4,645.949,386.775,656.266,373.944Z" transform="translate(-520.071 -318.428)"/><path class="l" d="M657.031,365.884c-1.771,1.551-5.654-5.854-6.075,1.428-1.589-8.459,1.093-14.532,7.691-18.252,5.14-2.9,10.046-2.98,13.315,2.14,3.74,5.858,11.655,6.6,15.1,12.944-9.515,4.9-19.109,1.988-28.54,1.759C658.018,366.6,657.521,366.562,657.031,365.884Z" transform="translate(-512.106 -330.52)"/><path class="l" d="M655.007,360.046l1.495.019c8.4,4.834,17.23,4.341,26.2,2.116,7.085-1.759,16.2,2.829,17.693,9.648,1.047,4.792-3.812,3.255-6.206,4.292-4.881,2.81-9.911,2.063-14.909.5-2.177-.681-4.156-2.324-6.595-.887C664.049,373.6,657.225,369.417,655.007,360.046Z" transform="translate(-510.082 -324.682)"/><path class="n" d="M691.553,428.278a5.064,5.064,0,0,0-3.075-3.045c-2.729-3.457-1.875-7.315-1.26-11.152,1.662-3.157,3.612-3.416,5.862-.57,5.641,2.939,11.638,5.376,17.97,4.241,5.39-.967,7,1.431,7.5,5.794a45.4,45.4,0,0,1,.191,7.927c-.245,3.956-1.988,5.075-6.218,4.092C705.233,433.871,699.15,428.907,691.553,428.278Z" transform="translate(-495.871 -301.513)"/><path class="l" d="M679.9,385.132c-6.686-1.646-8.811-6.489-8.93-12.738,5.256-1.436,10.482.087,15.721.219,1.617.041,3.222.65,4.734-.383,10.733-1.789,17.787,4.678,15.9,14.577-7.016,2.954-13.959,2.287-20.88-.378C684.347,385.621,682.506,383.4,679.9,385.132Z" transform="translate(-502.901 -319.401)"/><path class="l" d="M687.128,471.38l-1.5-1.454c-4.135-3.558-1.586-7.243.09-10.633.906-1.833,2.935-3.1,3.21-5.388,3.41.515,4.137,3.483,5.43,5.935,4.211,4.029,8.79,7.46,14.63,8.742,3.067.673,6.67.783,5.034,5.62-1.417,4.189-2.607,8.682-8.733,6.963a35.911,35.911,0,0,1-14.433-7.856A16.66,16.66,0,0,0,687.128,471.38Z" transform="translate(-497.31 -282.448)"/><path class="o" d="M686.1,413.474c-.77-4.547-.987-9.041,1.319-13.283.416-.584.783-.584,1.09.094a29.1,29.1,0,0,0,23.854,7.688c3.313-.365,6.03-.664,5.832,3.667-.164,3.584,1.115,8.175-4.85,8.722-6.4.586-12.4-.976-18.354-3-2.632-.532-5.169-1.905-7.981-.9C685.569,415.811,685.152,414.85,686.1,413.474Z" transform="translate(-496.33 -306.81)"/><path class="p" d="M623.011,424.063c6.058-4.006,11.712-8.349,13.337-16.043,2.065,2.075.966,4.52.692,6.8-1.467,12.213-.6,24.47-.767,36.706a3.579,3.579,0,0,1-3.963.676c-2.226-1.734-1.032-3.822-.61-5.846.465-2.232,1.383-4.559-1.037-6.465-3.054,3.2.664,7.6-2.117,10.718-5.1.493-8.062-1.86-9.107-6.795C620.17,437.147,618.622,430.065,623.011,424.063Z" transform="translate(-526.087 -303.095)"/><path class="l" d="M689.908,444.012a9.292,9.292,0,0,0,1.154-.075c4.13,8.439,11.382,12.948,20.192,14.333,5.056.8,5.324,3,4.175,6.716-1.111,3.592-1.57,7.734-7.517,5.588a47.7,47.7,0,0,1-13.631-7.756c-3.251-.786-4.464-4.115-7.09-5.681C686.715,452.476,686.412,447.85,689.908,444.012Z" transform="translate(-495.729 -286.933)"/><path class="q" d="M685.286,393.524q.818-.84,1.637-1.678a42.329,42.329,0,0,0,19.637,3.509c3.95-.3,10.515,7.093,10.235,11.042-.193,2.732-2.352,2.733-4.218,2.782-7.583.2-14.765-1.3-21.241-5.465-2.376-1.536-3.4-4.311-5.553-6.052a4.431,4.431,0,0,1-1.337-2.485A2.28,2.28,0,0,1,685.286,393.524Z" transform="translate(-496.835 -310.373)"/><path class="r" d="M709.416,460.036c9.758,5.263,12.331,4.9,19.159-4.486,3.848-5.287,7.849-1.662,10.67-.106,3.209,1.768-.276,4.5-1.627,6.371-9.132,12.631-20.078,13.659-29.813,2.945C708.379,463.2,707.843,461.258,709.416,460.036Z" transform="translate(-486.325 -282.954)"/><path class="o" d="M686.662,394.545c-5.044-2.387-6.371-6.519-5.491-11.69,8.668.126,17.375-.367,25.921,1.649a30.715,30.715,0,0,1,3.468,4.518c2.748,5.35.976,8.282-5.018,8.2a41.026,41.026,0,0,1-13.251-2.562C690.522,394.033,688.576,391.8,686.662,394.545Z" transform="translate(-498.423 -314.419)"/><path class="o" d="M661.221,500.61c3.964-3.7,9.206-4.263,14.085-5.713a1.1,1.1,0,0,1,.425,1.083c-.091.386-.193.579-.307.579.216,6.666,4.112,11.917,7.151,17.517C668.219,518.917,666.523,517.82,661.221,500.61Z" transform="translate(-507.286 -264.003)"/><path class="s" d="M640.16,500.149c3.789-5.691,10.755-9.261,11.387-17.059,4.077,4.95,4.876,11.977,10.636,15.99,2.436,1.7.225,3.908-1.285,5.435-2.137,2.16-3.916,1.176-5.253-.979-1.638-2.643-3.128-5.379-4.741-8.178-1.55,1.788.126,3.113.244,4.572.206,2.551,5.306,5.178,1.514,7.022-3.753,1.827-9.2,2.619-11.608-3.354A26.283,26.283,0,0,1,640.16,500.149Z" transform="translate(-516.763 -269.315)"/><path class="t" d="M671.055,500.152q-.056-.831-.117-1.662c-.233-5.53,3.869-8.336,7.275-11.579q.748,2.212,1.495,4.424c-2.511,7.053,2.78,10.709,6.747,14.655,2.5,2.487,4.483,4.385,1.551,7.712-3.081,3.5-5.539,4.654-9.025-.11C675.856,509.322,675.5,503.532,671.055,500.152Z" transform="translate(-502.918 -267.596)"/><path class="u" d="M644.368,452.341c-20.567,2.464-32.5-8.459-40.206-25.934l2.753-1.3c3.874,1.554,5.2,5.42,7.393,8.417,6.708,9.171,15.416,13.783,26.894,12.67.663-.01,1.324,0,1.986.016C644.892,448,644.489,450.2,644.368,452.341Z" transform="translate(-532.961 -295.409)"/><path class="v" d="M631.215,388.172c2.432-8.659,6.319-11.152,14.2-9.106.7,6.107-3.146,11.182-9.81,12.925C631.63,393.6,633.019,389.052,631.215,388.172Z" transform="translate(-520.788 -316.427)"/><path class="w" d="M631.759,385.153c3.051-.548,2.044,3.557,4.386,3.822,1.889.484,4.15,1.016,2.791,3.629-3.077,5.919-3.8,12.551-6.041,18.712q-1.444-5.781-2.89-11.564C633.373,395.221,630.715,389.965,631.759,385.153Z" transform="translate(-521.332 -313.407)"/><path class="x" d="M623.718,438.315c2.211,2.835,4.881,4.975,8.53,5.63,1.214-.335,2.127.3,3.038.941l4.328.3.044,2.368-.158.68c-13.472,1.477-27.786-11.478-27.484-24.874l2.652-1.248c2.738,1.937,3.094,5.461,5.226,7.8.661,1.064,1.218,2.185,1.8,3.293C622.526,434.842,623.614,436.386,623.718,438.315Z" transform="translate(-529.43 -296.755)"/><path class="y" d="M691.472,395.888c3.779,1.053,4.011,4.564,5.159,7.443l-2.316.135a7.654,7.654,0,0,0-1.092-.094c-5.029-4.963-5.275-5.007-20.545-3.46,4.881-6.426,10.788-8.144,17.9-6.771q.07.994.138,1.989c-2.562,1.427-5.285.912-6.3.869C685.646,395.828,688.552,396.53,691.472,395.888Z" transform="translate(-502.13 -309.989)"/><path class="z" d="M709.026,386.107c-8.708.531-17.391.636-25.921-1.647l-5.754-2.707c-1.137-2.1-1.193-3.178,1.66-1.931,8.247,3.6,16.975,3.863,25.769,3.606Z" transform="translate(-500.356 -316.022)"/><path class="aa" d="M646.5,480.946c-1.856.59-2.949,3.825-5.352,2.1a7.62,7.62,0,0,1-2.964-7.454c.325-2.529.873-5.029,1.322-7.54Q643.008,474.5,646.5,480.946Z" transform="translate(-517.687 -276.083)"/><path class="ab" d="M693.322,373.3c-6.795,3.117-13.633.78-20.456.164l-5.461-1.944c-.155-.842-1.82-2.739.809-1.905,6.779,2.152,13.728,2.165,20.694,2.3C690.008,373.557,691.776,373.073,693.322,373.3Z" transform="translate(-504.801 -320.47)"/><path class="ac" d="M687.142,412.189c2.984-5.685,4.9.344,7.328.67l-1.456,1.453c-1.67-.165-3.36-2.305-5.007.045C686.538,414.106,686.472,413.294,687.142,412.189Z" transform="translate(-495.806 -302.312)"/><path class="ad" d="M687.1,453.041c3.555.406,5.223,3.168,7.09,5.681l-1.5,1.506c-2.623-1.235-3.715-3.873-5.433-5.935A3.812,3.812,0,0,1,687.1,453.041Z" transform="translate(-495.642 -282.837)"/><path class="ae" d="M593.558,453.049l-3.911-.017c-15.534-5.4-15.345-20.706-20.523-32.622-.388-.9-.383-2.339.5-2.617,6.616-2.088,9.375-10.351,17.224-10.534a13.006,13.006,0,0,0,8.565-3.387c2.355-3.162,4.421-6.513,9.036-2.456,2.126,1.869,5.037.583,7.609-.249,4.2-1.36,8.29-3,12.422-4.53-4.493,1.624-8.927,3.422-13.525,4.743-5.387,1.549-9.442-.391-11.716-5.466-2.379-5.311-1.045-10.583,3.983-13.009a185.277,185.277,0,0,1,27.764-10.25c5.955-1.773,8.4,3.091,10.393,7.7,3.445,10.531,7.282,20.939,11.565,31.125,4.1,9.754-1.889,19.651-9.423,22.83-14.856,6.267-30.065,11.591-45.3,16.837A17.2,17.2,0,0,0,593.558,453.049Z" transform="translate(-548.838 -319.177)"/><path class="af" d="M601.348,420.259c-.725.6-1.45,1.71-2.178,1.71-9.065.017-14.588,7.347-22.1,10.5-2.268.951-2.775,1.811-1.84,4.177,2.724,6.9,5.018,13.973,7.772,20.862a13.454,13.454,0,0,0,8.284,7.527c1.569.576,3.445.623,3.155,3.042-7.772-1.057-12.383-5.61-14.87-12.9s-3.618-16.032-8.459-21.242c-6.358-6.84-8.7-14.768-11.743-22.712-3.664-9.563,1.778-17.24,11.9-16.65,3,.175,4.3.064,5.948-2.8,2.885-5.013,7.914-6.839,13.653-5.751,1.837.348,3.268,1.778,4.617-1.034,3.087-6.448,9.062-7.188,16.069-6.838-2.578-7.254-5.114-14.1-7.446-21.022-3.026-8.985-.929-14.678,6.183-17.352,7.029-2.642,12.654.457,16.05,9.11,1.931,4.92,3.526,9.973,5.273,14.965-.39,1.018-.858,1.927-2.21,1.663-2.7-1.759-2.981-4.824-3.925-7.491a63.1,63.1,0,0,0-4.547-10.608c-1.863-3.232-4.4-5.153-8.329-3.9-4.034,1.282-5.633,4.27-5.452,8.327.19,4.193,2.39,7.8,3.541,11.7,1.424,4.83,3.98,9.315,4.408,14.452a6.185,6.185,0,0,1-3.313,3.853c-6.651.281-12.838,1.237-13.937,9.6a4.032,4.032,0,0,1-2.411,1.781c-1.8-.075-2.941-1.562-4.5-2.131-6.17-2.265-11.6,1.872-10.4,8.249,1.116,5.917,3.652,11.432,6.512,16.727,3.081,5.71,7.9,2.677,12.183,2.185A2.437,2.437,0,0,1,601.348,420.259Z" transform="translate(-553.632 -334.218)"/><path class="ag" d="M600.249,373.505l2.471-2.961c3.225,1.23,3.616,4.377,4.359,7.027,1.81,6.454,5.858,4.083,9.655,2.71,3.9-1.411,7.986-2.436,5.466-8.484-1.853-4.447-5.237-8.8-3.13-14.214l1.215-1.495c4.406,10.343,6.792,21.679,14.845,30.229.866,1.543-.055,1.636-1.233,1.52-2.45-6.465-6.445-8.06-12.971-5.113-6.967,3.149-14.3,5.508-21.526,8.063-5.617,1.985-7.4,5.452-5.324,11.172,2.023,5.575,5.442,7.6,11.121,5.472q7.406-2.78,14.859-5.423c1.173-.415,2.775-2.1,3.609-.051.947,2.33-1.4,1.689-2.548,2.1-5.419,1.926-10.837,3.848-16.234,5.833-2.075.763-4.462,1.785-6.173.216-4.451-4.083-6.406-.564-8.69,2.4l-1.3-1.122a37.946,37.946,0,0,0-3.29-17.513c-1.147-2.73-3.248-5.549-1.119-8.782l1.293-1.507c4.328,1.723,3.755,6.115,5.262,9.489a11.753,11.753,0,0,1,6.906-5.667c5.427-1.608,5.836-4.721,3.373-9.171C600.37,376.831,599.453,375.281,600.249,373.505Z" transform="translate(-542.306 -326.463)"/><path class="ah" d="M632.77,378.456l1.233-1.52c4.4,11.627,9.026,23.173,13.116,34.908a16.207,16.207,0,0,1-8.126,19.683A252.008,252.008,0,0,1,585.9,450.956c1.032-3.8,4.7-2.736,7.158-3.679,12.534-4.812,25.224-9.215,37.767-14,13.612-5.2,17.021-12.887,12.129-26.4C639.53,397.411,636.163,387.928,632.77,378.456Z" transform="translate(-541.179 -317.082)"/><path class="ai" d="M614.693,422.971a46,46,0,0,0,12.3,19.3c4.351,4.061,9.468,5.5,15.186,5.571-8.51,2.624-21.309-.816-26.555-7.586-3.489-4.5-6.4-9.449-9.563-14.2Z" transform="translate(-532.107 -296.367)"/><path class="aj" d="M621.444,439.729a7.116,7.116,0,0,1-3.28-4.9,15.18,15.18,0,0,1,1.536-14.24c1.389-.7,2.542-2.11,4.38-1.457C622.764,425.944,623.508,433.017,621.444,439.729Z" transform="translate(-527.156 -298.169)"/><path class="ak" d="M618.177,430.911c-3.145-1.885-3.621-5.162-4.333-8.314q2.338-.785,4.678-1.576C620.507,424.391,619.315,427.65,618.177,430.911Z" transform="translate(-528.605 -297.245)"/><path class="al" d="M616.832,431.331q.172-4.946.344-9.892l2.63-1.351q-.77,7.123-1.537,14.242Q617.551,432.831,616.832,431.331Z" transform="translate(-527.26 -297.665)"/><path class="am" d="M626.664,469.819c2.288,4,4.973,7.827,5.49,12.6a40.714,40.714,0,0,1-6.874-11.044Q625.973,470.6,626.664,469.819Z" transform="translate(-523.459 -275.287)"/><path class="an" d="M753.288,452.16c-7.431.467-4.511,8.739-8.752,11.611-6.1,2.922-12.072,2.349-17.681-1.1-2.78-1.709-5.764-3.768-4.035-7.969,1.4.054,2.258-.226,1.405-1.91-1.045-2.063-1.985-4.179-2.971-6.273-3.541-7.5,1.559-13.079,4.276-19.186a7.732,7.732,0,0,0,.113-1.211c.464-3.554,1.8-6.232,6.031-5.994,2.936.139,4.228,2.807,6.386,4.145.811-5.179,4.665-6.31,10.054-3.241.911.518,2.551,6.732,4.292-.164.531-2.1,5.385-.47,7.1,2.129a85.685,85.685,0,0,1,6.32,11.247c1.705,3.693-.71,6.276-3.165,8.769-3.106,3.158-7.618,4.878-9.506,9.277Z" transform="translate(-480.817 -298)"/><path class="ao" d="M722.46,443.829c1.322,6.812,6.954,7.982,12.352,9,3.019.567,6.236.084,9.364.074-5.414,6.294-11.587,3.961-17.434,1.134-3.977-1.924-7.2-4.918-5.371-10.211a.589.589,0,0,1,.463-.318A1.888,1.888,0,0,1,722.46,443.829Z" transform="translate(-480.457 -287.128)"/><path class="ap" d="M726,424.853c0,6.713-6.064,12.074-4.276,19.186C716.184,436.09,719.816,430.186,726,424.853Z" transform="translate(-481.29 -295.521)"/><path class="aq" d="M748.033,417.687c-5.411,2.72-10.9-.316-16.33.757C737.082,413.359,742.6,419.112,748.033,417.687Z" transform="translate(-475.571 -299.369)"/><path class="ap" d="M730.742,420.249c-2.949,1.054-3.87,4.147-6.031,5.994-3.747-.251-2.635-2.517-1.58-4.324C724.978,418.754,727.649,418.278,730.742,420.249Z" transform="translate(-479.885 -298.121)"/><path class="ar" d="M702.915,433.761c-3.531,9.313-6.1,19.043-11.8,27.419-2.732-3.419.115-6.32.86-9.423.419-1.753,2.294-3.631.438-5.275-1.386-1.228-3.283-.258-4.772.455-5.607,2.682-10.955,5.826-17.358,6.668-2.748.362-4.411,3.017-4.1,6,.32,3.09,3.031,3.338,5.4,3.755,6.747,1.19,13.161-.557,19.578-2.259-.3,4.209-3.407,5.484-6.792,6.165-7.695,1.553-15.236-.139-22.711-1.636-3.622-.725-4.093-4.447-5.01-7.322-1.224-3.842-2.017-7.823-2.994-11.745-1.794-1.415-1.62-3.413-1.591-5.366.512-4.391,2.674-3.851,5.348-1.8,15.813,4.488,30.106.284,43.75-7.656C702.458,431.8,703.363,432.194,702.915,433.761Z" transform="translate(-511.415 -292.418)"/><path class="as" d="M657.467,433.189c-4.472,2.247-8.727,2.6-12.49-1.412-5.282-5.479-6.142-11.69-2.91-18.474,3.067-6.438,9.115-8.149,15.27-4.435,7.389,8.854,7.4,14.43.048,24.384Z" transform="translate(-516.758 -303.584)"/><path class="at" d="M692.448,428.342c-3.149,4-6.638,8.15-12.322,5.916-6.954-2.732-8.671-8.8-8.046-15.754,1.327-4.662,3.2-8.871,8.479-10.285C691.818,407.842,696.176,415.223,692.448,428.342Z" transform="translate(-502.453 -303.012)"/><path class="n" d="M659.947,478.451c2.923-2.88-.911-10.386,5.21-10.07,5.462.281,5.13,6.795,4.746,11.085-.281,3.133-.164,8.513-4.97,8.059C660.8,487.135,661.661,481.816,659.947,478.451Z" transform="translate(-507.86 -275.939)"/><path class="au" d="M703.138,435.065l-1.631-1.683c-11.458,8-24.638,8.964-37.959,9.071-2.366.02-4.794-.3-7.2-.355-.944.232-2.066-4.663-2.854.1-2.5-.13-2.179-1.476-1.317-3.057,7.373-1.854,14.861.116,22.395-.983,10.55-1.54,20.485-4.187,29.788-9.309q.252,1.54.509,3.08Z" transform="translate(-511.639 -293.723)"/><path class="av" d="M657.732,409.49c-9.967-2.93-17.407,4.148-15.506,15.036.474,2.724,2.065,5.253,3.145,7.873-8.086-6.358-8.173-18.963.171-24.384C649.609,405.373,654.337,403.593,657.732,409.49Z" transform="translate(-517.153 -304.207)"/><path class="aw" d="M690.685,428.978c-.074-2.343-.189-4.685-.216-7.028-.1-9.333-3.561-12.476-13.071-11.843-1.392.342-1.778-.223-1.36-1.511,5.294-3.521,9.908-1.306,14.426,1.714.521,1.067,1.043,2.131,1.563,3.206q.437,1.1.869,2.179c1.16,3.853.419,7.776.4,11.672q-.648.7-1.3,1.4Q691.349,428.9,690.685,428.978Z" transform="translate(-500.691 -303.647)"/><path class="ax" d="M639.829,403.8c4.76-13.376,12.335-14.45,21.857-4C654.161,398.792,647.074,398.03,639.829,403.8Z" transform="translate(-516.912 -309.961)"/><path class="ay" d="M652.043,428.96c6.075-1.755,7.419-7.778,11.136-12.49.257,4.093-1.543,6.921-3.409,9.6-4.5,6.463-4.565,6.418,1.917,13.192-5.988-2.023-8.659-5.381-9.562-10.364Z" transform="translate(-511.416 -299.293)"/><path class="az" d="M655.3,381.882c1.276,3.977,1.915,6.834-.1,9.6-.154.212-1.512-.032-1.837-.441C650.9,387.952,652.163,385.311,655.3,381.882Z" transform="translate(-511.407 -314.856)"/><path class="ba" d="M677.763,408.036q.681.755,1.362,1.511c-3.113,2.421-5.1,5.723-7.082,9.032C672.037,414.029,673.448,410.244,677.763,408.036Z" transform="translate(-502.417 -303.088)"/><path class="bb" d="M652.535,435.946q.659,1.529,1.317,3.057.189,2.836.381,5.674C649.045,442.665,650.713,439.322,652.535,435.946Z" transform="translate(-511.995 -290.529)"/><path class="bc" d="M629.448,442.387a2.972,2.972,0,0,1-3.036-.941,14.437,14.437,0,0,1-1.395-6.911c.2-2.8-.109-7.115,3.122-6.86,3.657.289,3.9,4.881,3.7,8.081C631.7,438.006,630.29,440.178,629.448,442.387Z" transform="translate(-523.591 -294.255)"/><path class="bd" d="M689.134,395.318c-3.312,5.273-7.715-1.256-11.258,1.609,2.988-3.982,6.773-3.016,10.5-2.372A2.541,2.541,0,0,0,689.134,395.318Z" transform="translate(-499.792 -309.42)"/><path class="ae" d="M615.867,364.588c1.936,5.671,3.732,11.4,5.869,16.991,1.032,2.7.986,3.889-2.12,5.268-13.915,6.183-13.847,6.336-20.1-9.3-2.664-7.443-5.52-14.825-7.94-22.347-2.474-7.688-.629-11.984,5.45-14.049,5.574-1.892,9.584.426,12.528,7.47C611.761,353.9,613.771,359.263,615.867,364.588Z" transform="translate(-539.103 -333.468)"/><path class="ae" d="M589.465,377.544c1.752,4.95,3.59,9.871,5.227,14.859,1.272,3.873,2.7,7.859-.818,11.436-10.257,4.56-12.96,3.492-16.868-6.761-1.286-3.376-2.376-6.825-3.693-10.187-1.924-4.91-2.562-9.526,3.062-12.431C581.506,371.81,586.13,372.158,589.465,377.544Z" transform="translate(-547.461 -318.921)"/><path class="be" d="M569.837,378.968a5.822,5.822,0,0,1,6.084,4.116c2.384,6.291,5.017,12.5,7.182,18.861,1.443,4.241-.106,7.483-4.453,9.265-4.088,1.676-8.2,2.532-10.884-1.881a64.8,64.8,0,0,1-7.826-20.807C558.809,382.983,563.646,378.778,569.837,378.968Z" transform="translate(-552.934 -316.17)"/><path class="bf" d="M599.564,368.323a26.627,26.627,0,0,1,2.439,3.5c4.031,8.281,4.051,8.414-4.443,11.81a12.089,12.089,0,0,0-7.488,7.6c-1.976-4.923-3.566-8.878-5.155-12.834C585.7,369.154,590.228,366.038,599.564,368.323Z" transform="translate(-541.621 -321.281)"/><path class="bg" d="M687.595,457.488c-6.016,6.27-13.693,4.241-20.888,3.882-2.453-.122-6.422.38-6.708-3.7-.3-4.341,1.506-9.593,5.6-9.673,7.309-.145,12.425-4.425,18.5-6.857,2.724-1.092,6.048-2.307,8.127-.232,1.769,1.763-1.225,4.209-1.62,6.473-.612,3.523-3.661,6.3-3.061,10.18Z" transform="translate(-507.851 -288.803)"/><path class="bh" d="M654.859,440.691c5.363-2.783,11.146-.793,16.711-1.433a113.559,113.559,0,0,0,28.447-7.283c-.087.467-.007,1.1-.283,1.379C691.988,441.307,665.452,445.622,654.859,440.691Z" transform="translate(-510.149 -292.316)"/><path class="bi" d="M658.228,418.462c-.193,4.947-1.2,9.435-6.158,9.774-5.3.362-6.51-4.353-6.609-8.558-.1-4.272,1.3-8.891,6.186-9.206C656.878,410.135,657.819,414.76,658.228,418.462Z" transform="translate(-514.38 -301.999)"/><path class="bi" d="M688.077,419.488c-.426,4.021-1.17,8.836-6.789,8.826-4.769-.01-6.086-4.392-6.077-8.355.012-4.457,1.13-9.326,6.764-9.248C686.618,410.777,687.988,414.778,688.077,419.488Z" transform="translate(-500.991 -301.884)"/><path class="bj" d="M653.884,396.635l-10.456.666C647.123,392.973,647.123,392.973,653.884,396.635Z" transform="translate(-515.293 -309.419)"/></g></g></g></svg>